<mxfile host="65bd71144e">
    <diagram name="Strona-1" id="v-zHthr2nO5cXxbaHLEK">
        <mxGraphModel dx="257" dy="101" grid="1" gridSize="5" guides="1" tooltips="1" connect="1" arrows="1" fold="1" page="1" pageScale="1" pageWidth="827" pageHeight="1169" math="0" shadow="0">
            <root>
                <mxCell id="0"/>
                <mxCell id="1" parent="0"/>
                <mxCell id="15" value="" style="rounded=0;whiteSpace=wrap;html=1;fontColor=#000000;" vertex="1" parent="1">
                    <mxGeometry x="675" y="425" width="130" height="155" as="geometry"/>
                </mxCell>
                <mxCell id="VQ5K2nt0rYeS8-GWMUB9-1" value="" style="rounded=0;whiteSpace=wrap;html=1;fillColor=none;" parent="1" vertex="1">
                    <mxGeometry x="240" y="480" width="360" height="80" as="geometry"/>
                </mxCell>
                <mxCell id="VQ5K2nt0rYeS8-GWMUB9-2" value="" style="rounded=0;whiteSpace=wrap;html=1;rotation=-45;fillColor=none;" parent="1" vertex="1">
                    <mxGeometry x="291" y="608" width="362" height="80" as="geometry"/>
                </mxCell>
                <mxCell id="VQ5K2nt0rYeS8-GWMUB9-11" value="" style="endArrow=none;html=1;rounded=0;exitX=1;exitY=0.5;exitDx=0;exitDy=0;fillColor=#d5e8d4;strokeColor=#82b366;" parent="1" source="VQ5K2nt0rYeS8-GWMUB9-2" edge="1">
                    <mxGeometry width="50" height="50" relative="1" as="geometry">
                        <mxPoint x="600" y="520" as="sourcePoint"/>
                        <mxPoint x="640" y="500" as="targetPoint"/>
                    </mxGeometry>
                </mxCell>
                <mxCell id="VQ5K2nt0rYeS8-GWMUB9-12" value="" style="endArrow=none;html=1;rounded=0;exitX=1;exitY=0;exitDx=0;exitDy=0;" parent="1" source="VQ5K2nt0rYeS8-GWMUB9-1" edge="1">
                    <mxGeometry width="50" height="50" relative="1" as="geometry">
                        <mxPoint x="615" y="505" as="sourcePoint"/>
                        <mxPoint x="640" y="500" as="targetPoint"/>
                    </mxGeometry>
                </mxCell>
                <mxCell id="VQ5K2nt0rYeS8-GWMUB9-13" value="" style="endArrow=none;html=1;rounded=0;exitX=1;exitY=1;exitDx=0;exitDy=0;" parent="1" source="VQ5K2nt0rYeS8-GWMUB9-2" edge="1">
                    <mxGeometry width="50" height="50" relative="1" as="geometry">
                        <mxPoint x="605" y="485" as="sourcePoint"/>
                        <mxPoint x="640" y="500" as="targetPoint"/>
                    </mxGeometry>
                </mxCell>
                <mxCell id="VQ5K2nt0rYeS8-GWMUB9-14" value="&lt;b style=&quot;font-size: 17px;&quot;&gt;A&lt;/b&gt;" style="text;html=1;strokeColor=none;fillColor=none;align=center;verticalAlign=middle;whiteSpace=wrap;rounded=0;fontSize=17;" parent="1" vertex="1">
                    <mxGeometry x="210" y="425" width="60" height="30" as="geometry"/>
                </mxCell>
                <mxCell id="VQ5K2nt0rYeS8-GWMUB9-15" value="&lt;b style=&quot;font-size: 17px;&quot;&gt;B&lt;/b&gt;" style="text;html=1;strokeColor=none;fillColor=none;align=center;verticalAlign=middle;whiteSpace=wrap;rounded=0;fontSize=17;" parent="1" vertex="1">
                    <mxGeometry x="570" y="425" width="60" height="30" as="geometry"/>
                </mxCell>
                <mxCell id="VQ5K2nt0rYeS8-GWMUB9-16" value="&lt;b style=&quot;font-size: 17px;&quot;&gt;C&lt;/b&gt;" style="text;html=1;strokeColor=none;fillColor=none;align=center;verticalAlign=middle;whiteSpace=wrap;rounded=0;fontSize=17;" parent="1" vertex="1">
                    <mxGeometry x="225" y="765" width="60" height="30" as="geometry"/>
                </mxCell>
                <mxCell id="VQ5K2nt0rYeS8-GWMUB9-17" value="&lt;b style=&quot;font-size: 17px;&quot;&gt;D&lt;/b&gt;" style="text;html=1;strokeColor=none;fillColor=none;align=center;verticalAlign=middle;whiteSpace=wrap;rounded=0;fontSize=17;" parent="1" vertex="1">
                    <mxGeometry x="615" y="765" width="60" height="30" as="geometry"/>
                </mxCell>
                <mxCell id="VQ5K2nt0rYeS8-GWMUB9-18" value="" style="rounded=0;whiteSpace=wrap;html=1;fillColor=none;" parent="1" vertex="1">
                    <mxGeometry x="340" y="735" width="280" height="80" as="geometry"/>
                </mxCell>
                <mxCell id="VQ5K2nt0rYeS8-GWMUB9-20" value="" style="endArrow=none;dashed=1;html=1;rounded=0;exitX=0;exitY=1;exitDx=0;exitDy=0;entryX=1;entryY=0;entryDx=0;entryDy=0;" parent="1" source="VQ5K2nt0rYeS8-GWMUB9-1" target="VQ5K2nt0rYeS8-GWMUB9-1" edge="1">
                    <mxGeometry width="50" height="50" relative="1" as="geometry">
                        <mxPoint x="160" y="645" as="sourcePoint"/>
                        <mxPoint x="210" y="595" as="targetPoint"/>
                    </mxGeometry>
                </mxCell>
                <mxCell id="VQ5K2nt0rYeS8-GWMUB9-21" value="" style="endArrow=none;dashed=1;html=1;rounded=0;entryX=1;entryY=0;entryDx=0;entryDy=0;exitX=0;exitY=1;exitDx=0;exitDy=0;" parent="1" source="VQ5K2nt0rYeS8-GWMUB9-2" target="VQ5K2nt0rYeS8-GWMUB9-2" edge="1">
                    <mxGeometry width="50" height="50" relative="1" as="geometry">
                        <mxPoint x="625" y="650" as="sourcePoint"/>
                        <mxPoint x="630" y="550" as="targetPoint"/>
                    </mxGeometry>
                </mxCell>
                <mxCell id="VQ5K2nt0rYeS8-GWMUB9-22" value="" style="endArrow=none;dashed=1;html=1;rounded=0;exitX=0;exitY=1;exitDx=0;exitDy=0;entryX=1;entryY=0;entryDx=0;entryDy=0;" parent="1" source="VQ5K2nt0rYeS8-GWMUB9-18" target="VQ5K2nt0rYeS8-GWMUB9-18" edge="1">
                    <mxGeometry width="50" height="50" relative="1" as="geometry">
                        <mxPoint x="321" y="753" as="sourcePoint"/>
                        <mxPoint x="635" y="555" as="targetPoint"/>
                    </mxGeometry>
                </mxCell>
                <mxCell id="VQ5K2nt0rYeS8-GWMUB9-23" value="0" style="text;html=1;strokeColor=none;fillColor=none;align=center;verticalAlign=middle;whiteSpace=wrap;rounded=0;" parent="1" vertex="1">
                    <mxGeometry x="200" y="465" width="60" height="30" as="geometry"/>
                </mxCell>
                <mxCell id="VQ5K2nt0rYeS8-GWMUB9-24" value="1" style="text;html=1;strokeColor=none;fillColor=none;align=center;verticalAlign=middle;whiteSpace=wrap;rounded=0;" parent="1" vertex="1">
                    <mxGeometry x="195" y="540" width="60" height="30" as="geometry"/>
                </mxCell>
                <mxCell id="VQ5K2nt0rYeS8-GWMUB9-25" value="2" style="text;html=1;strokeColor=none;fillColor=none;align=center;verticalAlign=middle;whiteSpace=wrap;rounded=0;" parent="1" vertex="1">
                    <mxGeometry x="565" y="455" width="60" height="30" as="geometry"/>
                </mxCell>
                <mxCell id="VQ5K2nt0rYeS8-GWMUB9-26" value="3" style="text;html=1;strokeColor=none;fillColor=none;align=center;verticalAlign=middle;whiteSpace=wrap;rounded=0;" parent="1" vertex="1">
                    <mxGeometry x="215" y="560" width="60" height="30" as="geometry"/>
                </mxCell>
                <mxCell id="VQ5K2nt0rYeS8-GWMUB9-27" value="4" style="text;html=1;strokeColor=none;fillColor=none;align=center;verticalAlign=middle;whiteSpace=wrap;rounded=0;" parent="1" vertex="1">
                    <mxGeometry x="580" y="460" width="60" height="30" as="geometry"/>
                </mxCell>
                <mxCell id="VQ5K2nt0rYeS8-GWMUB9-28" value="5" style="text;html=1;strokeColor=none;fillColor=none;align=center;verticalAlign=middle;whiteSpace=wrap;rounded=0;" parent="1" vertex="1">
                    <mxGeometry x="560" y="535" width="60" height="30" as="geometry"/>
                </mxCell>
                <mxCell id="VQ5K2nt0rYeS8-GWMUB9-29" value="6" style="text;html=1;strokeColor=none;fillColor=none;align=center;verticalAlign=middle;whiteSpace=wrap;rounded=0;" parent="1" vertex="1">
                    <mxGeometry x="590" y="450" width="60" height="30" as="geometry"/>
                </mxCell>
                <mxCell id="VQ5K2nt0rYeS8-GWMUB9-30" value="7" style="text;html=1;strokeColor=none;fillColor=none;align=center;verticalAlign=middle;whiteSpace=wrap;rounded=0;" parent="1" vertex="1">
                    <mxGeometry x="610" y="475" width="60" height="30" as="geometry"/>
                </mxCell>
                <mxCell id="VQ5K2nt0rYeS8-GWMUB9-31" value="8" style="text;html=1;strokeColor=none;fillColor=none;align=center;verticalAlign=middle;whiteSpace=wrap;rounded=0;" parent="1" vertex="1">
                    <mxGeometry x="555" y="510" width="60" height="30" as="geometry"/>
                </mxCell>
                <mxCell id="VQ5K2nt0rYeS8-GWMUB9-32" value="9" style="text;html=1;strokeColor=none;fillColor=none;align=center;verticalAlign=middle;whiteSpace=wrap;rounded=0;" parent="1" vertex="1">
                    <mxGeometry x="560" y="520" width="60" height="30" as="geometry"/>
                </mxCell>
                <mxCell id="VQ5K2nt0rYeS8-GWMUB9-33" value="10" style="text;html=1;strokeColor=none;fillColor=none;align=center;verticalAlign=middle;whiteSpace=wrap;rounded=0;" parent="1" vertex="1">
                    <mxGeometry x="615" y="540" width="60" height="30" as="geometry"/>
                </mxCell>
                <mxCell id="VQ5K2nt0rYeS8-GWMUB9-34" value="11" style="text;html=1;strokeColor=none;fillColor=none;align=center;verticalAlign=middle;whiteSpace=wrap;rounded=0;" parent="1" vertex="1">
                    <mxGeometry x="620" y="495" width="60" height="30" as="geometry"/>
                </mxCell>
                <mxCell id="VQ5K2nt0rYeS8-GWMUB9-19" value="same &lt;br&gt;as in B" style="ellipse;whiteSpace=wrap;html=1;fillColor=#f8cecc;strokeColor=#b85450;" parent="1" vertex="1">
                    <mxGeometry x="275" y="715" width="131" height="120" as="geometry"/>
                </mxCell>
                <mxCell id="VQ5K2nt0rYeS8-GWMUB9-36" value="w" style="text;html=1;strokeColor=#82b366;fillColor=#d5e8d4;align=center;verticalAlign=middle;whiteSpace=wrap;rounded=0;fontColor=#000000;" parent="1" vertex="1">
                    <mxGeometry x="585" y="490" width="15" height="15" as="geometry"/>
                </mxCell>
                <mxCell id="VQ5K2nt0rYeS8-GWMUB9-37" value="w" style="text;html=1;strokeColor=none;fillColor=none;align=center;verticalAlign=middle;whiteSpace=wrap;rounded=0;" parent="1" vertex="1">
                    <mxGeometry x="610" y="520" width="15" height="15" as="geometry"/>
                </mxCell>
                <mxCell id="VQ5K2nt0rYeS8-GWMUB9-38" value="w" style="text;html=1;strokeColor=#82b366;fillColor=#d5e8d4;align=center;verticalAlign=middle;whiteSpace=wrap;rounded=0;fontColor=#000000;" parent="1" vertex="1">
                    <mxGeometry x="610" y="495" width="15" height="15" as="geometry"/>
                </mxCell>
                <mxCell id="VQ5K2nt0rYeS8-GWMUB9-39" value="" style="endArrow=none;html=1;rounded=0;entryX=1;entryY=0;entryDx=0;entryDy=0;exitX=0.676;exitY=-0.004;exitDx=0;exitDy=0;exitPerimeter=0;fillColor=#d5e8d4;strokeColor=#82b366;strokeWidth=2;" parent="1" source="VQ5K2nt0rYeS8-GWMUB9-32" target="VQ5K2nt0rYeS8-GWMUB9-2" edge="1">
                    <mxGeometry width="50" height="50" relative="1" as="geometry">
                        <mxPoint x="655" y="595" as="sourcePoint"/>
                        <mxPoint x="705" y="545" as="targetPoint"/>
                    </mxGeometry>
                </mxCell>
                <mxCell id="2" value="" style="endArrow=none;html=1;fontColor=#000000;" edge="1" parent="1">
                    <mxGeometry width="50" height="50" relative="1" as="geometry">
                        <mxPoint x="720" y="520" as="sourcePoint"/>
                        <mxPoint x="720" y="480" as="targetPoint"/>
                    </mxGeometry>
                </mxCell>
                <mxCell id="3" value="" style="endArrow=none;html=1;fontColor=#000000;" edge="1" parent="1">
                    <mxGeometry width="50" height="50" relative="1" as="geometry">
                        <mxPoint x="760" y="500" as="sourcePoint"/>
                        <mxPoint x="720" y="480" as="targetPoint"/>
                    </mxGeometry>
                </mxCell>
                <mxCell id="4" value="" style="endArrow=none;html=1;fontColor=#000000;" edge="1" parent="1">
                    <mxGeometry width="50" height="50" relative="1" as="geometry">
                        <mxPoint x="760" y="500" as="sourcePoint"/>
                        <mxPoint x="720" y="520" as="targetPoint"/>
                    </mxGeometry>
                </mxCell>
                <mxCell id="5" value="" style="endArrow=none;html=1;fontColor=#000000;" edge="1" parent="1">
                    <mxGeometry width="50" height="50" relative="1" as="geometry">
                        <mxPoint x="760" y="500" as="sourcePoint"/>
                        <mxPoint x="750" y="550" as="targetPoint"/>
                    </mxGeometry>
                </mxCell>
                <mxCell id="6" value="" style="endArrow=none;html=1;fontColor=#000000;" edge="1" parent="1">
                    <mxGeometry width="50" height="50" relative="1" as="geometry">
                        <mxPoint x="720" y="520" as="sourcePoint"/>
                        <mxPoint x="750" y="550" as="targetPoint"/>
                    </mxGeometry>
                </mxCell>
                <mxCell id="7" value="&lt;b style=&quot;font-size: 17px;&quot;&gt;B&lt;/b&gt;" style="text;html=1;strokeColor=none;fillColor=none;align=center;verticalAlign=middle;whiteSpace=wrap;rounded=0;fontSize=17;" vertex="1" parent="1">
                    <mxGeometry x="700" y="517.5" width="15" height="15" as="geometry"/>
                </mxCell>
                <mxCell id="8" value="0" style="text;html=1;strokeColor=none;fillColor=none;align=center;verticalAlign=middle;whiteSpace=wrap;rounded=0;" vertex="1" parent="1">
                    <mxGeometry x="705" y="467.5" width="15" height="15" as="geometry"/>
                </mxCell>
                <mxCell id="9" value="1" style="text;html=1;strokeColor=none;fillColor=none;align=center;verticalAlign=middle;whiteSpace=wrap;rounded=0;" vertex="1" parent="1">
                    <mxGeometry x="705" y="502.5" width="15" height="15" as="geometry"/>
                </mxCell>
                <mxCell id="10" value="2" style="text;html=1;strokeColor=none;fillColor=none;align=center;verticalAlign=middle;whiteSpace=wrap;rounded=0;" vertex="1" parent="1">
                    <mxGeometry x="755" y="485" width="15" height="15" as="geometry"/>
                </mxCell>
                <mxCell id="11" value="3" style="text;html=1;strokeColor=none;fillColor=none;align=center;verticalAlign=middle;whiteSpace=wrap;rounded=0;" vertex="1" parent="1">
                    <mxGeometry x="760" y="495" width="15" height="15" as="geometry"/>
                </mxCell>
                <mxCell id="12" value="4" style="text;html=1;strokeColor=none;fillColor=none;align=center;verticalAlign=middle;whiteSpace=wrap;rounded=0;" vertex="1" parent="1">
                    <mxGeometry x="710" y="520" width="15" height="15" as="geometry"/>
                </mxCell>
                <mxCell id="13" value="5" style="text;html=1;strokeColor=none;fillColor=none;align=center;verticalAlign=middle;whiteSpace=wrap;rounded=0;" vertex="1" parent="1">
                    <mxGeometry x="740" y="550" width="15" height="15" as="geometry"/>
                </mxCell>
                <mxCell id="14" value="&lt;b style=&quot;font-size: 17px;&quot;&gt;CONNECTOR&lt;br&gt;&lt;/b&gt;" style="text;html=1;strokeColor=none;fillColor=none;align=center;verticalAlign=middle;whiteSpace=wrap;rounded=0;fontSize=17;" vertex="1" parent="1">
                    <mxGeometry x="680" y="437.5" width="115" height="30" as="geometry"/>
                </mxCell>
            </root>
        </mxGraphModel>
    </diagram>
</mxfile>
